{"title":"Riddick 2013 READNFO CAM XViD UNiQUE","uid":8898240,"size":1477269843,"categoryP":"video","categoryS":"movies","magnet":"?xt=urn:btih:8eaeeca71fe0627e3c3a3f758cc6475a80073d51&amp;dn=Riddick+2013+READNFO+CAM+XViD+UNiQUE&amp;tr=udp%3A%2F%2Ftracker.openbittorrent.com%3A80&amp;tr=udp%3A%2F%2Fopen.demonii.com%3A1337&amp;tr=udp%3A%2F%2Ftracker.coppersurfer.tk%3A6969&amp;tr=udp%3A%2F%2Fexodus.desync.com%3A6969","seeders":1,"leechers":1,"uploader":"xxxlavalxxx","files":3,"time":1378751477,"description":" &lt;a href=&quot;\nhttp://www.imdb.com/title/tt1411250/&quot; rel=&quot;nofollow&quot; target=&quot;_NEW&quot;&gt;\nhttp://www.imdb.com/title/tt1411250/&lt;/a&gt;\n\n\n\nLeft for dead on a sun-scorched planet, Riddick finds himself up against an alien race of predators. Activating an emergency beacon alerts two ships: one carrying a new breed of mercenary, the other captained by a man from Riddick's past. \n\n\n\nDirector:\n David Twohy \n\nWriters:\n David Twohy, Jim Wheat (based on characters created by)\n\nStars:\n Vin Diesel, Karl Urban, Katee Sackhoff \n\nGenres:\n  Action |  Sci-Fi |  Thriller \n\nCountry:\n USA | UK \n\nLanguage:\n English \n\n\n\nFormat                                   : AVI\n Format/Info                              : Audio Video Interleave\n File size                                : 1.36 GiB\n Duration                                 : 1h 51mn\n Overall bit rate                         : 1 745 Kbps\n Writing application                      : VirtualDubMod 1.5.10.2 (build 2540/release)\n Writing library                          : VirtualDubMod build 2540/release\n\n Video\n ID                                       : 0\n Format                                   : MPEG-4 Visual\n Format profile                           : Advanced Simple@L5\n Format settings, BVOP                    : 2\n Format settings, QPel                    : No\n Format settings, GMC                     : No warppoints\n Format settings, Matrix                  : Default (H.263)\n Muxing mode                              : Packed bitstream\n Codec ID                                 : XVID\n Codec ID/Hint                            : XviD\n Duration                                 : 1h 51mn\n Bit rate                                 : 1 605 Kbps\n Width                                    : 632 pixels\n Height                                   : 324 pixels\n Display aspect ratio                     : 1.951\n Frame rate                               : 29.970 fps\n Color space                              : YUV\n Chroma subsampling                       : 4:2:0\n Bit depth                                : 8 bits\n Scan type                                : Progressive\n Compression mode                         : Lossy\n Bits/(Pixel*Frame)                       : 0.262\n Stream size                              : 1.26 GiB (92%)\n Writing library                          : XviD 64\n\n Audio\n ID                                       : 1\n Format                                   : MPEG Audio\n Format version                           : Version 1\n Format profile                           : Layer 3\n Codec ID                                 : 55\n Codec ID/Hint                            : MP3\n Duration                                 : 1h 51mn\n Bit rate mode                            : Constant\n Bit rate                                 : 128 Kbps\n Channel(s)                               : 2 channels\n Sampling rate                            : 44.1 KHz\n Compression mode                         : Lossy\n Stream size                              : 102 MiB (7%)\n Alignment                                : Split accross interleaves\n Interleave, duration                     : 33 ms (1.00 video frame)\n Interleave, preload duration             : 500 ms\n\n\nSource Used    Maxp - Thanks\n\n &lt;a href=&quot;\nhttp://s13.postimg.org/parg06g5z/14liv5c.jpg&quot; rel=&quot;nofollow&quot; target=&quot;_NEW&quot;&gt;\nhttp://s13.postimg.org/parg06g5z/14liv5c.jpg&lt;/a&gt; &lt;a href=&quot;\nhttp://s18.postimg.org/8f4ees1rt/deycgn.jpg&quot; rel=&quot;nofollow&quot; target=&quot;_NEW&quot;&gt;\nhttp://s18.postimg.org/8f4ees1rt/deycgn.jpg&lt;/a&gt;","torrent":{"xt":"urn:btih:8eaeeca71fe0627e3c3a3f758cc6475a80073d51","amp;dn":"Riddick+2013+READNFO+CAM+XViD+UNiQUE","amp;tr":["udp%3A%2F%2Ftracker.openbittorrent.com%3A80","udp%3A%2F%2Fopen.demonii.com%3A1337","udp%3A%2F%2Ftracker.coppersurfer.tk%3A6969","udp%3A%2F%2Fexodus.desync.com%3A6969"],"infoHash":"8eaeeca71fe0627e3c3a3f758cc6475a80073d51","infoHashBuffer":{"type":"Buffer","data":[142,174,236,167,31,224,98,126,60,58,63,117,140,198,71,90,128,7,61,81]},"announce":[],"urlList":[]}}